<svg xmlns="http://www.w3.org/2000/svg" xmlns:svg="http://www.w3.org/2000/svg" xmlns:xlink="http://www.w3.org/1999/xlink" id="svg2" width="16" height="16" version="1.0" style="display:inline"><defs id="defs4"><linearGradient id="linearGradient3224"><stop style="stop-color:#000;stop-opacity:1" id="stop3226" offset="0"/><stop style="stop-color:#3c3c3c;stop-opacity:1" id="stop3228" offset="1"/></linearGradient><linearGradient id="linearGradient3341" x1="50.827" x2="50.827" y1="78.296" y2="12.75" gradientTransform="matrix(0.1425027,0,0,0.1534193,1.9270303,1.1742559)" gradientUnits="userSpaceOnUse" xlink:href="#linearGradient3224"/><linearGradient id="linearGradient3327"><stop style="stop-color:#000;stop-opacity:1" id="stop3330" offset="0"/><stop style="stop-color:#000;stop-opacity:0" id="stop3333" offset="1"/></linearGradient><linearGradient id="linearGradient3335" x1="11.375" x2="11.375" y1="22" y2="-9.817" gradientUnits="userSpaceOnUse" xlink:href="#linearGradient3327"/><linearGradient id="linearGradient3181" x1="-3.061" x2="-3.061" y1="27.258" y2="7.254" gradientTransform="translate(31.119372,-12.258198)" gradientUnits="userSpaceOnUse" xlink:href="#ButtonColor"/><linearGradient id="ButtonShadow" x1="9.355" x2="9.355" y1="21.743" y2=".494" gradientTransform="scale(0.9883037,1.0118347)" gradientUnits="userSpaceOnUse"><stop id="stop3277" offset="0" style="stop-color:#000;stop-opacity:.70588237"/><stop id="stop3279" offset="1" style="stop-color:#000;stop-opacity:.15686275"/></linearGradient><linearGradient id="linearGradient3232"><stop style="stop-color:#000;stop-opacity:1" id="stop3234" offset="0"/><stop style="stop-color:#000;stop-opacity:0" id="stop3236" offset="1"/></linearGradient><linearGradient id="linearGradient3221" x1="11" x2="11" y1="14.806" y2="-6" gradientUnits="userSpaceOnUse" xlink:href="#linearGradient3232"/><linearGradient id="ButtonColor" x1="10.32" x2="10.32" y1="21" y2=".999" gradientUnits="userSpaceOnUse"><stop style="stop-color:#b4b4b4;stop-opacity:1" id="stop3189" offset="0"/><stop style="stop-color:#e6e6e6;stop-opacity:1" id="stop3191" offset="1"/></linearGradient><linearGradient id="linearGradient38042" x1="9.355" x2="9.355" y1="21.743" y2=".494" gradientTransform="scale(0.9883037,1.0118347)" gradientUnits="userSpaceOnUse" xlink:href="#ButtonShadow"/><linearGradient id="linearGradient3184" x1="11.375" x2="11.375" y1="22" y2="-9.817" gradientTransform="translate(20,-6)" gradientUnits="userSpaceOnUse" xlink:href="#linearGradient3327"/><linearGradient id="linearGradient3192" x1="9.057" x2="9.057" y1="10.203" y2="-12.199" gradientTransform="translate(0,5.8006549)" gradientUnits="userSpaceOnUse" xlink:href="#linearGradient3327"/><linearGradient id="linearGradient3204" x1="1" x2="15" y1="9" y2="9" gradientTransform="translate(-16,-1)" gradientUnits="userSpaceOnUse" xlink:href="#ButtonColor"/><linearGradient id="linearGradient3918" x1="50.827" x2="50.827" y1="78.296" y2="12.75" gradientTransform="matrix(0.1425027,0,0,0.1534193,0.8243565,4.3903641e-2)" gradientUnits="userSpaceOnUse" xlink:href="#linearGradient3224"/><radialGradient id="radialGradient3882" cx="47.098" cy="78.287" r="38.957" fx="47.098" fy="78.287" gradientTransform="matrix(0.31947611,0,0,0.30316466,-4.0475704,-5.6387621)" gradientUnits="userSpaceOnUse" xlink:href="#linearGradient3224-2"/><linearGradient id="linearGradient3224-2"><stop style="stop-color:#52475d;stop-opacity:1" id="stop3226-5" offset="0"/><stop style="stop-color:#000;stop-opacity:1" id="stop3228-4" offset="1"/></linearGradient><radialGradient id="radialGradient3678" cx="47.098" cy="78.287" r="38.957" fx="47.098" fy="78.287" gradientTransform="matrix(0.21300227,0,0,0.20212704,-2.032058,-3.0013239)" gradientUnits="userSpaceOnUse" xlink:href="#linearGradient3224-2"/></defs><metadata id="metadata7"/><g id="layer1"><rect style="opacity:.5;fill:url(#linearGradient3192);fill-opacity:1;fill-rule:nonzero;stroke:none;stroke-width:.5;stroke-linecap:round;stroke-linejoin:round;stroke-miterlimit:4;stroke-dasharray:none;stroke-dashoffset:0;stroke-opacity:1" id="rect2410" width="15" height="15.5" x=".5" y=".5" rx="2" ry="2"/><rect style="opacity:.3;fill:#000;fill-opacity:1;fill-rule:nonzero;stroke:none;stroke-width:.5;stroke-linecap:round;stroke-linejoin:round;stroke-miterlimit:4;stroke-dasharray:none;stroke-dashoffset:0;stroke-opacity:1" id="rect3194" width="14" height="14" x="1" y="2" rx="2" ry="2"/><rect id="rect3196" width="14" height="14" x="-15" y="1" rx="2" ry="2" transform="matrix(0,-1,1,0,0,0)" style="fill:url(#linearGradient3204);fill-opacity:1;fill-rule:nonzero;stroke:none"/><rect style="fill:url(#radialGradient3678);fill-opacity:1;stroke:none;display:inline" id="rect3461" width="12" height="12" x="2" y="2" rx="1.5" ry="1.5"/><path style="opacity:.7;fill:#fff;fill-opacity:1;fill-rule:nonzero;stroke:none;stroke-width:.5;stroke-linecap:round;stroke-linejoin:round;stroke-miterlimit:4;stroke-dasharray:none;stroke-dashoffset:0;stroke-opacity:1" id="rect2411" d="M 3 1 C 1.892 1 1 1.892 1 3 L 1 4 C 1 2.892 1.892 2 3 2 L 13 2 C 14.108 2 15 2.892 15 4 L 15 3 C 15 1.892 14.108 1 13 1 L 3 1 z"/><path style="opacity:.13999999;fill:#d9c6ed;fill-opacity:1;stroke:none;display:inline" id="rect3256" d="M 3,2 C 2.50062,2 2.09998,2.4262339 2.09998,2.952962 l 0,7.556315 C 4.999149,8.3748118 9.155621,6.8447192 14.098638,7.1546581 l 0,-4.2016961 C 14.098638,2.4262338 13.693185,2 13.193805,2 L 3,2 z"/><path id="path3186" d="M 3,15 C 1.892,15 1,14.108 1,13 L 1,12 C 1,13.108 1.892,14 3,14 L 13,14 C 14.108,14 15,13.108 15,12 L 15,13 C 15,14.108 14.108,15 13,15 L 3,15 z" style="opacity:.15;fill:#000;fill-opacity:1;fill-rule:nonzero;stroke:none;stroke-width:.5;stroke-linecap:round;stroke-linejoin:round;stroke-miterlimit:4;stroke-dasharray:none;stroke-dashoffset:0;stroke-opacity:1"/><path style="display:inline;font-size:48px;font-style:normal;font-variant:normal;font-weight:700;font-stretch:normal;text-align:start;line-height:125%;writing-mode:lr-tb;text-anchor:start;opacity:.84999999999999998;fill:#f95;fill-opacity:1;stroke:none;stroke-width:1px;stroke-linecap:butt;stroke-linejoin:miter;stroke-opacity:1;font-family:MgOpen Canonica;-inkscape-font-specification:MgOpen Canonica Bold" id="path5204" d="M 4.0238059,5.0450407 L 4.0238059,6.1953474 L 6.8105509,7.6135201 L 4.0238059,9.0316941 L 4.0238059,10.072438 L 8.0123675,8.1762281 L 8.0123675,6.9306279 L 4.0238059,5.0450407 z"/><path style="display:inline;font-size:48px;font-style:normal;font-variant:normal;font-weight:700;font-stretch:normal;text-align:start;line-height:125%;writing-mode:lr-tb;text-anchor:start;opacity:.84999999999999998;fill:#cdde87;fill-opacity:1;stroke:none;stroke-width:1px;stroke-linecap:butt;stroke-linejoin:miter;stroke-opacity:1;font-family:MgOpen Canonica;-inkscape-font-specification:MgOpen Canonica Bold" id="path5199" d="M 8.0336405,10.010348 L 8.0336405,10.984099 L 12.012367,10.984099 L 12.012367,10.010348 L 8.0336405,10.010348 z"/><rect style="opacity:.5;fill:none;stroke:#000;stroke-width:1;stroke-linecap:butt;stroke-linejoin:round;stroke-miterlimit:4;stroke-opacity:1;stroke-dasharray:none;stroke-dashoffset:0;display:inline" id="rect3935" width="11" height="11" x="2.5" y="2.5" rx="1.3" ry="1.3"/></g></svg>
